<?xml version="1.0" encoding="UTF-8" standalone="no"?>
<!DOCTYPE svg PUBLIC "-//W3C//DTD SVG 1.1//EN" "http://www.w3.org/Graphics/SVG/1.1/DTD/svg11.dtd">
<svg width="100%" height="100%" viewBox="0 0 600 117" version="1.1" xmlns="http://www.w3.org/2000/svg" xmlns:xlink="http://www.w3.org/1999/xlink" xml:space="preserve" xmlns:serif="http://www.serif.com/" style="fill-rule:evenodd;clip-rule:evenodd;stroke-linejoin:round;stroke-miterlimit:2;">
    <g id="Artboard1" transform="matrix(1,0,0,1,0,-249.634)">
        <rect x="0" y="249.634" width="600" height="116.687" style="fill:none;"/>
        <clipPath id="_clip1">
            <rect x="0" y="249.634" width="600" height="116.687"/>
        </clipPath>
        <g clip-path="url(#_clip1)">
            <g transform="matrix(4.58857,0,0,4.58857,-665.703,-1313.93)">
                <g transform="matrix(2.29951,0,0,2.29951,-454.639,83.1404)">
                    <path d="M274.095,121.765L274.095,113.365L277.935,113.365C278.703,113.365 279.365,113.489 279.921,113.737C280.477,113.985 280.907,114.343 281.211,114.811C281.515,115.279 281.667,115.833 281.667,116.473C281.667,117.105 281.515,117.653 281.211,118.117C280.907,118.581 280.477,118.939 279.921,119.191C279.365,119.443 278.703,119.569 277.935,119.569L275.415,119.569L276.471,118.537L276.471,121.765L274.095,121.765ZM276.471,118.789L275.415,117.697L277.791,117.697C278.287,117.697 278.657,117.589 278.901,117.373C279.145,117.157 279.267,116.857 279.267,116.473C279.267,116.081 279.145,115.777 278.901,115.561C278.657,115.345 278.287,115.237 277.791,115.237L275.415,115.237L276.471,114.145L276.471,118.789Z" style="fill:rgb(62,62,62);fill-rule:nonzero;"/>
                    <path d="M285.867,121.873C285.099,121.873 284.429,121.727 283.857,121.435C283.285,121.143 282.841,120.743 282.525,120.235C282.209,119.727 282.051,119.149 282.051,118.501C282.051,117.853 282.205,117.275 282.513,116.767C282.821,116.259 283.247,115.863 283.791,115.579C284.335,115.295 284.947,115.153 285.627,115.153C286.267,115.153 286.851,115.283 287.379,115.543C287.907,115.803 288.327,116.185 288.639,116.689C288.951,117.193 289.107,117.805 289.107,118.525C289.107,118.605 289.103,118.697 289.095,118.801C289.087,118.905 289.079,119.001 289.071,119.089L283.923,119.089L283.923,117.889L287.859,117.889L286.995,118.225C287.003,117.929 286.949,117.673 286.833,117.457C286.717,117.241 286.557,117.073 286.353,116.953C286.149,116.833 285.911,116.773 285.639,116.773C285.367,116.773 285.129,116.833 284.925,116.953C284.721,117.073 284.563,117.243 284.451,117.463C284.339,117.683 284.283,117.941 284.283,118.237L284.283,118.585C284.283,118.905 284.349,119.181 284.481,119.413C284.613,119.645 284.803,119.823 285.051,119.947C285.299,120.071 285.595,120.133 285.939,120.133C286.259,120.133 286.533,120.087 286.761,119.995C286.989,119.903 287.215,119.761 287.439,119.569L288.639,120.817C288.327,121.161 287.943,121.423 287.487,121.603C287.031,121.783 286.491,121.873 285.867,121.873Z" style="fill:rgb(62,62,62);fill-rule:nonzero;"/>
                    <path d="M294.039,115.153C294.543,115.153 294.999,115.255 295.407,115.459C295.815,115.663 296.137,115.977 296.373,116.401C296.609,116.825 296.727,117.373 296.727,118.045L296.727,121.765L294.447,121.765L294.447,118.417C294.447,117.953 294.353,117.615 294.165,117.403C293.977,117.191 293.715,117.085 293.379,117.085C293.139,117.085 292.919,117.139 292.719,117.247C292.519,117.355 292.363,117.521 292.251,117.745C292.139,117.969 292.083,118.261 292.083,118.621L292.083,121.765L289.803,121.765L289.803,115.261L291.975,115.261L291.975,117.109L291.555,116.569C291.803,116.097 292.143,115.743 292.575,115.507C293.007,115.271 293.495,115.153 294.039,115.153Z" style="fill:rgb(62,62,62);fill-rule:nonzero;"/>
                    <path d="M297.543,121.765L297.543,113.365L301.383,113.365C302.151,113.365 302.813,113.489 303.369,113.737C303.925,113.985 304.355,114.343 304.659,114.811C304.963,115.279 305.115,115.833 305.115,116.473C305.115,117.105 304.963,117.653 304.659,118.117C304.355,118.581 303.925,118.939 303.369,119.191C302.813,119.443 302.151,119.569 301.383,119.569L298.863,119.569L299.919,118.537L299.919,121.765L297.543,121.765ZM299.919,118.789L298.863,117.697L301.239,117.697C301.735,117.697 302.105,117.589 302.349,117.373C302.593,117.157 302.715,116.857 302.715,116.473C302.715,116.081 302.593,115.777 302.349,115.561C302.105,115.345 301.735,115.237 301.239,115.237L298.863,115.237L299.919,114.145L299.919,118.789Z" style="fill:rgb(62,62,62);fill-rule:nonzero;"/>
                    <path d="M305.739,121.765L305.739,115.261L307.911,115.261L307.911,117.157L307.587,116.617C307.779,116.129 308.091,115.763 308.523,115.519C308.955,115.275 309.479,115.153 310.095,115.153L310.095,117.205C309.991,117.189 309.901,117.179 309.825,117.175C309.749,117.171 309.667,117.169 309.579,117.169C309.115,117.169 308.739,117.295 308.451,117.547C308.163,117.799 308.019,118.209 308.019,118.777L308.019,121.765L305.739,121.765Z" style="fill:rgb(62,62,62);fill-rule:nonzero;"/>
                    <path d="M313.995,121.873C313.283,121.873 312.651,121.729 312.099,121.441C311.547,121.153 311.113,120.755 310.797,120.247C310.481,119.739 310.323,119.157 310.323,118.501C310.323,117.845 310.481,117.265 310.797,116.761C311.113,116.257 311.547,115.863 312.099,115.579C312.651,115.295 313.283,115.153 313.995,115.153C314.707,115.153 315.341,115.295 315.897,115.579C316.453,115.863 316.887,116.257 317.199,116.761C317.511,117.265 317.667,117.845 317.667,118.501C317.667,119.157 317.511,119.739 317.199,120.247C316.887,120.755 316.453,121.153 315.897,121.441C315.341,121.729 314.707,121.873 313.995,121.873ZM313.995,120.061C314.259,120.061 314.493,120.001 314.697,119.881C314.901,119.761 315.063,119.583 315.183,119.347C315.303,119.111 315.363,118.829 315.363,118.501C315.363,118.173 315.303,117.895 315.183,117.667C315.063,117.439 314.901,117.265 314.697,117.145C314.493,117.025 314.259,116.965 313.995,116.965C313.739,116.965 313.509,117.025 313.305,117.145C313.101,117.265 312.937,117.439 312.813,117.667C312.689,117.895 312.627,118.173 312.627,118.501C312.627,118.829 312.689,119.111 312.813,119.347C312.937,119.583 313.101,119.761 313.305,119.881C313.509,120.001 313.739,120.061 313.995,120.061Z" style="fill:rgb(62,62,62);fill-rule:nonzero;"/>
                </g>
                <g>
                    <g transform="matrix(-0.493695,0,0,0.575924,252.145,263.488)">
                        <path d="M187.865,145.013L174.994,145.013C168.689,145.013 163.578,149.394 163.578,154.799C163.578,164.699 163.578,178.552 163.578,178.552L187.865,178.552L187.865,145.013Z" style="fill:rgb(76,174,255);"/>
                    </g>
                    <g transform="matrix(-0.493695,0,0,0.575924,237.826,257.374)">
                        <path d="M187.865,145.013L163.578,145.013L163.578,178.552L176.448,178.552C182.753,178.552 187.865,174.17 187.865,168.765C187.865,158.866 187.865,145.013 187.865,145.013Z" style="fill:rgb(76,174,255);"/>
                    </g>
                </g>
            </g>
        </g>
    </g>
</svg>
